<svg width="51" height="51" viewBox="0 0 51 51" fill="none" xmlns="http://www.w3.org/2000/svg">
<g clip-path="url(#clip0_5_10)">
<path d="M50.5172 33.2486C50.5172 34.3638 49.6128 35.2682 48.4976 35.2682C47.3824 35.2682 46.478 34.3638 46.478 33.2486C46.478 32.1334 47.3824 31.229 48.4976 31.229C49.6128 31.229 50.5172 32.1334 50.5172 33.2486Z" fill="#FDB525"/>
<path d="M36.4072 13.8312C42.2654 13.8312 47.1818 20.4136 48.5724 29.3114C48.5996 29.478 48.484 29.6344 48.3174 29.6616C48.1746 29.6854 48.0386 29.6072 47.9842 29.4746C46.5936 26.0712 44.2102 23.8238 41.5004 23.8238C37.6142 23.8238 34.204 28.577 33.8198 35.1118C33.3166 36.1964 29.291 37.026 25.585 37.1688V21.5458C27.8868 16.8436 32.4428 13.8312 36.4072 13.8312Z" fill="#9B268F"/>
<path d="M0.6528 33.2486C0.6528 34.3638 1.5572 35.2682 2.6724 35.2682C3.7876 35.2682 4.692 34.3638 4.692 33.2486C4.692 32.1334 3.7876 31.229 2.6724 31.229C1.5572 31.229 0.6528 32.1334 0.6528 33.2486Z" fill="#FDB525"/>
<path d="M14.7628 13.8312C8.9046 13.8312 3.9882 20.4136 2.5976 29.3114C2.5704 29.478 2.686 29.6344 2.8526 29.6616C2.9954 29.6854 3.1314 29.6072 3.1858 29.4746C4.5764 26.0712 6.9598 23.8238 9.6696 23.8238C13.5558 23.8238 16.966 28.577 17.3502 35.1118C17.8534 36.1964 21.879 37.026 25.585 37.1688V21.5458C23.2832 16.8436 18.7238 13.8312 14.7628 13.8312Z" fill="#E91E77"/>
</g>
<defs>
<clipPath id="clip0_5_10">
<rect width="51" height="51" fill="white"/>
</clipPath>
</defs>
</svg>
